<?xml version="1.0" encoding="UTF-8"?>
<svg version="1.1" xmlns="http://www.w3.org/2000/svg" width="500" height="500">
<path d="M0 0 C0.99 0 1.98 0 3 0 C4.20445001 4.74840538 4.17903335 9.39620388 4.203125 14.26171875 C4.20882507 15.16638382 4.21452515 16.07104889 4.22039795 17.00312805 C4.22983349 18.92207682 4.23637618 20.84104168 4.24023438 22.76000977 C4.24981697 25.63263297 4.28080125 28.50450144 4.3125 31.37695312 C4.4003236 46.49470387 3.11300798 61.18487059 -1.6875 75.625 C-1.94241211 76.40512451 -2.19732422 77.18524902 -2.45996094 77.98901367 C-7.83498046 93.80743283 -18.2051664 116.01742246 -33 125 C-33.66 125 -34.32 125 -35 125 C-35 125.66 -35 126.32 -35 127 C-45.5978393 136.52404942 -59.75350634 143.56343605 -72.91796875 148.71875 C-76.84708533 150.35214701 -80.63506723 152.21818293 -84.4375 154.125 C-85.11248535 154.46225098 -85.7874707 154.79950195 -86.48291016 155.14697266 C-93.21200192 158.03021982 -93.21200192 158.03021982 -98 163 C-98.1316935 165.22026727 -98.20299722 167.44421683 -98.24609375 169.66796875 C-98.27911764 171.05143658 -98.31232742 172.43489999 -98.34570312 173.81835938 C-98.39243796 175.98099569 -98.43668614 178.14362715 -98.47680664 180.30639648 C-99.01127987 207.8077644 -99.01127987 207.8077644 -104.4375 217.75 C-105.03433594 218.87921875 -105.63117188 220.0084375 -106.24609375 221.171875 C-107.69580015 223.50948621 -108.85511719 225.30321249 -111 227 C-111.66 227 -112.32 227 -113 227 C-113.2475 227.5775 -113.495 228.155 -113.75 228.75 C-116.60004314 233.88007765 -120.18465276 235.77553761 -125.625 237.6875 C-126.77226562 238.10386719 -127.91953125 238.52023437 -129.1015625 238.94921875 C-137.94984402 241.60841892 -147.42099121 241.15569337 -156.5625 241.125 C-157.74908203 241.12886719 -158.93566406 241.13273438 -160.15820312 241.13671875 C-161.28291016 241.13542969 -162.40761719 241.13414062 -163.56640625 241.1328125 C-164.58677979 241.13168457 -165.60715332 241.13055664 -166.65844727 241.12939453 C-169 241 -169 241 -170 240 C-170.10562891 237.92399172 -170.13968608 235.84433582 -170.14717102 233.76565552 C-170.15084771 233.10694328 -170.1545244 232.44823105 -170.1583125 231.76955783 C-170.16939096 229.54574569 -170.17320031 227.3219802 -170.17700195 225.09814453 C-170.1832639 223.50995229 -170.18991045 221.92176153 -170.19691467 220.33357239 C-170.21435937 216.0045238 -170.22488769 211.6754863 -170.2331202 207.34641123 C-170.2382672 204.64019865 -170.24434333 201.93398953 -170.25063133 199.22777939 C-170.26970037 190.75686872 -170.28392305 182.28596682 -170.2922433 173.8150388 C-170.30199732 164.04556864 -170.32826147 154.27632618 -170.36874419 144.50693619 C-170.39896581 136.95351382 -170.41371824 129.40015643 -170.41702431 121.8466748 C-170.4193696 117.33748087 -170.42826049 112.82852969 -170.45348549 108.31940079 C-170.47687455 104.0692584 -170.48095624 99.81951662 -170.47072411 95.5693264 C-170.47023111 94.01620204 -170.47648115 92.46305726 -170.49028015 90.90999413 C-170.56385895 82.13134702 -170.30446275 73.90202969 -166 66 C-165.01 65.505 -165.01 65.505 -164 65 C-163.731875 64.0925 -163.46375 63.185 -163.1875 62.25 C-161.77940793 58.39627433 -160.0196522 56.73875432 -157 54 C-156.278125 53.175 -155.55625 52.35 -154.8125 51.5 C-150.48694801 47.6550649 -144.92071085 44 -139 44 C-139 43.34 -139 42.68 -139 42 C-122.17 42 -105.34 42 -88 42 C-90.29664388 46.59328775 -91.93963821 48.01687705 -96 51 C-96.99 51 -97.98 51 -99 51 C-99.226875 51.5775 -99.45375 52.155 -99.6875 52.75 C-101 55 -101 55 -103.33984375 56.83203125 C-119.05644837 69.64071783 -123.96455078 90.49506837 -126.703125 109.5234375 C-127.37622645 117.40580976 -126.94997243 124.8910159 -125.6875 132.6875 C-125.55432373 133.54311523 -125.42114746 134.39873047 -125.28393555 135.28027344 C-124.07303887 142.89892034 -122.61158507 150.45641031 -121 158 C-120.03318305 154.45500451 -120.12596245 151.75704119 -120.72900391 148.16015625 C-123.57519703 125.47266364 -121.6224075 96.4746524 -107.28125 77.6328125 C-106.8584375 77.09398437 -106.435625 76.55515625 -106 76 C-105.4225 74.989375 -104.845 73.97875 -104.25 72.9375 C-103.8375 72.298125 -103.425 71.65875 -103 71 C-102.34 71 -101.68 71 -101 71 C-100.74089844 70.41734375 -100.48179687 69.8346875 -100.21484375 69.234375 C-95.90905789 61.31505181 -87.25650243 55.94761529 -80 51 C-79.14664063 50.41347656 -78.29328125 49.82695312 -77.4140625 49.22265625 C-69.64464506 44.078042 -61.35761958 40.0714861 -53 36 C-49.18276166 34.13449413 -45.37162287 32.25701184 -41.5625 30.375 C-40.65137451 29.93188477 -39.74024902 29.48876953 -38.80151367 29.03222656 C-33.54846571 26.43521409 -28.68317328 23.59744618 -23.89038086 20.22119141 C-22 19 -22 19 -19 18 C-17.8238137 16.85741902 -16.65306777 15.70834275 -15.51953125 14.5234375 C-13.7541011 12.75346897 -11.8929268 11.13269393 -10 9.5 C-6.85941913 6.78093376 -3.89251225 3.98016413 -1 1 C-0.67 0.67 -0.34 0.34 0 0 Z M-120 161 C-119 164 -119 164 -119 164 Z " fill="#012D4D" transform="translate(332,160)"/>
<path d="M0 0 C0.99 0 1.98 0 3 0 C4.20445001 4.74840538 4.17903335 9.39620388 4.203125 14.26171875 C4.20882507 15.16638382 4.21452515 16.07104889 4.22039795 17.00312805 C4.22983349 18.92207682 4.23637618 20.84104168 4.24023438 22.76000977 C4.24981697 25.63263297 4.28080125 28.50450144 4.3125 31.37695312 C4.4003236 46.49470387 3.11300798 61.18487059 -1.6875 75.625 C-1.94241211 76.40512451 -2.19732422 77.18524902 -2.45996094 77.98901367 C-7.83498046 93.80743283 -18.2051664 116.01742246 -33 125 C-33.66 125 -34.32 125 -35 125 C-35 125.66 -35 126.32 -35 127 C-45.5978393 136.52404942 -59.75350634 143.56343605 -72.91796875 148.71875 C-76.84708533 150.35214701 -80.63506723 152.21818293 -84.4375 154.125 C-85.11248535 154.46225098 -85.7874707 154.79950195 -86.48291016 155.14697266 C-93.18801541 158.42172629 -93.18801541 158.42172629 -99 163 C-101.74013388 157.51973223 -99.65571269 150.23760534 -98.25 144.5625 C-98.06735596 143.81315186 -97.88471191 143.06380371 -97.6965332 142.29174805 C-96.32433029 136.86490687 -94.56331104 131.98185036 -92 127 C-91.51917969 125.94683594 -91.03835937 124.89367187 -90.54296875 123.80859375 C-86.36649718 114.89813567 -81.2745642 107.58596829 -75 100 C-74.33339355 99.15501953 -74.33339355 99.15501953 -73.65332031 98.29296875 C-72.48024174 96.82511658 -71.24444478 95.40785672 -70 94 C-69.34 94 -68.68 94 -68 94 C-67.77183594 93.43539062 -67.54367187 92.87078125 -67.30859375 92.2890625 C-65.6444723 89.37809185 -63.57851735 87.58436619 -61.0625 85.375 C-60.18722656 84.59898437 -59.31195313 83.82296875 -58.41015625 83.0234375 C-56 81 -56 81 -53 79 C-65.58663508 83.29255185 -76.74292074 93.74292074 -86 103 C-86.79921875 103.79921875 -87.5984375 104.5984375 -88.421875 105.421875 C-100.50513135 118.17179377 -110.80896809 135.41800516 -115.11328125 152.48828125 C-116 155 -116 155 -119 157 C-120.74725274 149.01995049 -121.32179547 141.40813791 -121.25 133.25 C-121.24105713 132.10257324 -121.23211426 130.95514648 -121.22290039 129.77294922 C-120.96529458 110.89698347 -117.99114435 91.28139738 -106 76 C-105.4225 74.989375 -104.845 73.97875 -104.25 72.9375 C-103.8375 72.298125 -103.425 71.65875 -103 71 C-102.34 71 -101.68 71 -101 71 C-100.74089844 70.41734375 -100.48179687 69.8346875 -100.21484375 69.234375 C-95.90905789 61.31505181 -87.25650243 55.94761529 -80 51 C-79.14664063 50.41347656 -78.29328125 49.82695312 -77.4140625 49.22265625 C-69.64464506 44.078042 -61.35761958 40.0714861 -53 36 C-49.18276166 34.13449413 -45.37162287 32.25701184 -41.5625 30.375 C-40.65137451 29.93188477 -39.74024902 29.48876953 -38.80151367 29.03222656 C-33.54846571 26.43521409 -28.68317328 23.59744618 -23.89038086 20.22119141 C-22 19 -22 19 -19 18 C-17.8238137 16.85741902 -16.65306777 15.70834275 -15.51953125 14.5234375 C-13.7541011 12.75346897 -11.8929268 11.13269393 -10 9.5 C-6.85941913 6.78093376 -3.89251225 3.98016413 -1 1 C-0.67 0.67 -0.34 0.34 0 0 Z " fill="#7DAD2C" transform="translate(332,160)"/>
<path d="M0 0 C6.67657642 5.07832261 12.19366984 14.02849326 14.4765625 22.08203125 C15.8849653 34.03492343 15.02062937 43.77122497 8.0234375 53.7890625 C2.02484421 61.2496245 -5.58421813 67.78098 -15.2265625 69.6015625 C-27.55205375 70.57316654 -37.80642589 69.42465184 -47.6640625 61.1640625 C-48.87134999 59.99668534 -50.06104767 58.81064798 -51.2265625 57.6015625 C-52.1134375 56.7146875 -53.0003125 55.8278125 -53.9140625 54.9140625 C-60.67703508 46.12679881 -62.91216816 35.69554432 -61.68603516 24.83447266 C-60.32663608 18.22816876 -56.67237342 12.31637838 -53.2265625 6.6015625 C-52.5665625 6.6015625 -51.9065625 6.6015625 -51.2265625 6.6015625 C-51.2265625 5.9415625 -51.2265625 5.2815625 -51.2265625 4.6015625 C-36.91073924 -9.4376265 -16.67442937 -10.47271178 0 0 Z " fill="#FC8518" transform="translate(226.2265625,121.3984375)"/>
<path d="M0 0 C16.83 0 33.66 0 51 0 C48.91100178 4.17799643 47.94455388 4.92391901 44 7 C44 5.68 44 4.36 44 3 C38.46789944 3.09414713 32.9362053 3.20037145 27.40454102 3.31738281 C25.52602341 3.35546632 23.647438 3.39035366 21.76879883 3.421875 C19.05525614 3.46797713 16.34217208 3.52589285 13.62890625 3.5859375 C12.38615685 3.60326431 12.38615685 3.60326431 11.11830139 3.62094116 C2.21638354 3.84199757 -6.02292554 5.11975821 -13 11 C-14.83710564 13.24742365 -16.38673137 15.58009705 -18 18 C-18.66 18 -19.32 18 -20 18 C-20.37125 19.051875 -20.37125 19.051875 -20.75 20.125 C-22 23 -22 23 -24 25.9375 C-27.95164279 31.98845302 -28.32124797 37.50878554 -28.4140625 44.5234375 C-28.43351929 45.45041946 -28.45297607 46.37740143 -28.47302246 47.33247375 C-28.53338349 50.34655672 -28.57974056 53.36065541 -28.625 56.375 C-28.66217933 58.44898215 -28.69977947 60.5229568 -28.73779297 62.59692383 C-28.95373145 74.95949214 -29.09671782 87.32304607 -29.125 99.6875 C-29.12767883 100.35908142 -29.13035767 101.03066284 -29.13311768 101.72259521 C-29.13884972 103.58979426 -29.13607465 105.45701375 -29.1328125 107.32421875 C-29.13168457 108.35635498 -29.13055664 109.38849121 -29.12939453 110.4519043 C-29.10774005 113.12295961 -29.10774005 113.12295961 -28 116 C-28.08844347 118.104557 -28.24362202 120.20656878 -28.43579102 122.30419922 C-29.01879503 129.60166207 -29.09673515 136.81619029 -29.02734375 144.1328125 C-29.01471711 146.75781128 -29.00235476 149.38281134 -28.99023438 152.0078125 C-28.96643826 156.09183921 -28.937432 160.17580654 -28.90405273 164.25976562 C-28.87216657 168.23824854 -28.85612988 172.21673478 -28.83984375 176.1953125 C-28.82638412 177.42130157 -28.8129245 178.64729065 -28.79905701 179.91043091 C-28.79567825 181.04616547 -28.7922995 182.18190002 -28.78881836 183.35205078 C-28.78136093 184.34907013 -28.7739035 185.34608948 -28.76622009 186.37332153 C-29.00883997 189.09932317 -29.72328871 190.62141775 -31 193 C-31.09358636 172.58937827 -31.16404917 152.17880029 -31.20724869 131.76800823 C-31.22784324 122.2901713 -31.25590424 112.81246796 -31.30175781 103.3347168 C-31.34172092 95.07053704 -31.36745538 86.80645407 -31.37635398 78.54218036 C-31.38155274 74.16932711 -31.3937064 69.79675067 -31.42292023 65.42398643 C-31.45023936 61.30109291 -31.458412 57.17858802 -31.45243073 53.05561256 C-31.45352364 51.54924527 -31.4613789 50.04286385 -31.4768219 48.53657532 C-31.56127914 39.86738271 -31.22212182 31.80915183 -27 24 C-26.34 23.67 -25.68 23.34 -25 23 C-24.731875 22.0925 -24.46375 21.185 -24.1875 20.25 C-22.77940793 16.39627433 -21.0196522 14.73875432 -18 12 C-17.278125 11.175 -16.55625 10.35 -15.8125 9.5 C-11.48694801 5.6550649 -5.92071085 2 0 2 C0 1.34 0 0.68 0 0 Z " fill="#072339" transform="translate(193,202)"/>
<path d="M0 0 C-0.81082031 0.65484375 -1.62164062 1.3096875 -2.45703125 1.984375 C-18.6945281 15.28530327 -30.45374398 30.24513688 -40 49 C-40.33 47.68 -40.66 46.36 -41 45 C-40.34 45 -39.68 45 -39 45 C-38.34 40.71 -37.68 36.42 -37 32 C-41 33.5 -41 33.5 -42 36 C-42.66 36 -43.32 36 -44 36 C-42.33646168 31.89594139 -39.42252852 28.93110844 -36.4375 25.75 C-35.62079834 24.87903687 -35.62079834 24.87903687 -34.78759766 23.99047852 C-27.65608788 16.4569422 -20.19992168 10.28004224 -11.625 4.4375 C-10.82690918 3.88763428 -10.02881836 3.33776855 -9.20654297 2.77124023 C-8.45002441 2.26794189 -7.69350586 1.76464355 -6.9140625 1.24609375 C-5.8923999 0.56051392 -5.8923999 0.56051392 -4.85009766 -0.13891602 C-3 -1 -3 -1 0 0 Z " fill="#08313D" transform="translate(280,239)"/>
<path d="M0 0 C0.66 0 1.32 0 2 0 C1.96519531 0.99515625 1.93039063 1.9903125 1.89453125 3.015625 C1.50010245 19.68681545 4.52877734 35.75172373 8 52 C8.66 51.01 9.32 50.02 10 49 C10.99 49 11.98 49 13 49 C13.125 56.625 13.125 56.625 12 60 C9.525 60.495 9.525 60.495 7 61 C6.731875 59.7625 6.46375 58.525 6.1875 57.25 C4.90642184 51.47132371 3.45600583 45.73666298 2 40 C1.67 40 1.34 40 1 40 C0.93941406 39.04738281 0.87882813 38.09476562 0.81640625 37.11328125 C0.73261719 35.85902344 0.64882812 34.60476563 0.5625 33.3125 C0.48128906 32.07113281 0.40007812 30.82976562 0.31640625 29.55078125 C0.09087769 26.17172377 0.09087769 26.17172377 -0.52734375 23.59570312 C-1.01442792 20.92076567 -1.02854445 18.62808282 -0.87890625 15.91796875 C-0.83056641 14.98662109 -0.78222656 14.05527344 -0.73242188 13.09570312 C-0.67634766 12.13599609 -0.62027344 11.17628906 -0.5625 10.1875 C-0.51029297 9.20845703 -0.45808594 8.22941406 -0.40429688 7.22070312 C-0.27512661 4.8134391 -0.14018357 2.40664362 0 0 Z M9 55 C10 58 10 58 10 58 Z " fill="#0F2938" transform="translate(203,266)"/>
<path d="M0 0 C-0.81082031 0.65484375 -1.62164062 1.3096875 -2.45703125 1.984375 C-12.52479189 10.23553485 -21.79511508 19.06845047 -29 30 C-29.33 28.68 -29.66 27.36 -30 26 C-29.34 26 -28.68 26 -28 26 C-28 25.34 -28 24.68 -28 24 C-27.34 24 -26.68 24 -26 24 C-25.30428121 20.5194493 -25.30428121 20.5194493 -25 17 C-27.64 19.64 -30.28 22.28 -33 25 C-33.66 24.67 -34.32 24.34 -35 24 C-28.55462093 16.94077531 -21.49780524 11.47207524 -13.64208984 6.125 C-12.15015944 5.10287462 -10.67739963 4.05290715 -9.20703125 3 C-8.41683594 2.443125 -7.62664062 1.88625 -6.8125 1.3125 C-6.13832031 0.83425781 -5.46414063 0.35601562 -4.76953125 -0.13671875 C-3 -1 -3 -1 0 0 Z " fill="#0E3630" transform="translate(280,239)"/>
<path d="M0 0 C0.33 0 0.66 0 1 0 C2.29553152 6.69993332 2.18603205 13.36144807 2.18530273 20.1550293 C2.18746369 22.39977735 2.20557636 24.64401222 2.22460938 26.88867188 C2.32913647 52.33347709 2.32913647 52.33347709 -3.125 61.9375 C-3.66382813 62.91589844 -4.20265625 63.89429688 -4.7578125 64.90234375 C-5.37269531 65.94068359 -5.37269531 65.94068359 -6 67 C-6.625 65.1875 -6.625 65.1875 -7 63 C-6.34 62.01 -5.68 61.02 -5 60 C-4.62080225 58.05008841 -4.62080225 58.05008841 -4.5 56 C-4.25179145 52.72364714 -3.94435842 51.91653763 -2 49 C-0.96911449 43.771822 -0.87944583 38.69792395 -0.9375 33.3984375 C-0.94128662 32.59894684 -0.94507324 31.79945618 -0.94897461 30.97573853 C-0.96110245 28.44210181 -0.97973133 25.90858384 -1 23.375 C-1.0266591 20.02864877 -1.04661236 16.68235528 -1.0625 13.3359375 C-1.07079834 12.57437347 -1.07909668 11.81280945 -1.08764648 11.02816772 C-1.10517481 7.21923049 -0.92793517 3.70169413 0 0 Z " fill="#0C1F2C" transform="translate(231,315)"/>
<path d="M0 0 C0.99 0.33 1.98 0.66 3 1 C2.43152344 1.71542969 1.86304688 2.43085938 1.27734375 3.16796875 C-9.7763745 17.43261684 -14.61225201 30.34329521 -18 48 C-18.99 48 -19.98 48 -21 48 C-21.35723723 41.42418878 -20.99892358 36.88250395 -18 31 C-17.62875 30.071875 -17.2575 29.14375 -16.875 28.1875 C-16 26 -16 26 -15 24 C-13.99515117 21.66875071 -12.99477753 19.33556463 -12 17 C-11.34 17 -10.68 17 -10 17 C-9.67 15.02 -9.34 13.04 -9 11 C-8.01 10.67 -7.02 10.34 -6 10 C-5.67 9.01 -5.34 8.02 -5 7 C-4.67 6.01 -4.34 5.02 -4 4 C-3.01 3.67 -2.02 3.34 -1 3 C-0.67 2.01 -0.34 1.02 0 0 Z " fill="#0C2738" transform="translate(224,217)"/>
<path d="M0 0 C3.4375 0 3.4375 0 6 1 C1.46853155 7.49510478 -5.12714264 11.59057346 -13 13 C-23.47219921 13.8255112 -31.51445737 13.030212 -41 8 C-39.375 7.3125 -39.375 7.3125 -37 7 C-35.60007813 7.70189453 -35.60007813 7.70189453 -34.171875 8.41796875 C-27.07468193 11.9578249 -16.81997379 10.64442556 -9.17578125 8.98046875 C-5.68996493 7.40966103 -3.87364123 4.63463987 -1.60546875 1.64453125 C-1.07566406 1.10183594 -0.54585937 0.55914062 0 0 Z " fill="#E9832A" transform="translate(224,178)"/>
<path d="M0 0 C-8.13112468 4.18672148 -16.34654702 8.12368585 -24.6875 11.875 C-25.56051758 12.2680835 -26.43353516 12.66116699 -27.33300781 13.06616211 C-30.5386676 14.49903297 -33.66644581 15.88881527 -37 17 C-36.34 15.68 -35.68 14.36 -35 13 C-33.68 13 -32.36 13 -31 13 C-31 12.34 -31 11.68 -31 11 C-30.01 10.67 -29.02 10.34 -28 10 C-27.34 9.01 -26.68 8.02 -26 7 C-25.34 7 -24.68 7 -24 7 C-23.67 6.01 -23.34 5.02 -23 4 C-19.7 4.33 -16.4 4.66 -13 5 C-13 4.34 -13 3.68 -13 3 C-12.360625 2.87625 -11.72125 2.7525 -11.0625 2.625 C-10.381875 2.41875 -9.70125 2.2125 -9 2 C-8.67 1.34 -8.34 0.68 -8 0 C-4.71585695 -0.95067299 -3.30306592 -1.10102197 0 0 Z " fill="#82A43F" transform="translate(277,300)"/>
<path d="M0 0 C3.34198739 1.36622126 4.65930016 2.55026116 6.1875 5.8125 C6.51105469 6.47894531 6.83460938 7.14539063 7.16796875 7.83203125 C10.33121628 16.07429594 10.46809574 27.17213212 7.375 35.4375 C5.21169537 40.08315779 2.28198914 44.08349296 -1 48 C-1.495 46.515 -1.495 46.515 -2 45 C-0.515 44.505 -0.515 44.505 1 44 C1 42.68 1 41.36 1 40 C1.66 40 2.32 40 3 40 C3 38.68 3 37.36 3 36 C3.66 36 4.32 36 5 36 C5 35.01 5 34.02 5 33 C5.66 33 6.32 33 7 33 C7 25.74 7 18.48 7 11 C6.34 11 5.68 11 5 11 C4.896875 10.360625 4.79375 9.72125 4.6875 9.0625 C4.460625 8.381875 4.23375 7.70125 4 7 C3.01 6.67 2.02 6.34 1 6 C0.67 4.02 0.34 2.04 0 0 Z " fill="#DD893B" transform="translate(232,131)"/>
<path d="M0 0 C0.33 0 0.66 0 1 0 C1.07532009 5.52772186 1.1291419 11.05513167 1.16479492 16.58325195 C1.17968995 18.45570085 1.20001285 20.3281161 1.22631836 22.20043945 C1.3944637 34.49483119 0.63832307 45.97634576 -2 58 C-4 56 -4 56 -4.265625 53.171875 C-4.26046875 52.04265625 -4.2553125 50.9134375 -4.25 49.75 C-4.25515625 48.63109375 -4.2603125 47.5121875 -4.265625 46.359375 C-3.9951741 42.93896661 -3.21960804 40.19421153 -2 37 C-1.67 37 -1.34 37 -1 37 C-0.67 24.79 -0.34 12.58 0 0 Z " fill="#86A24A" transform="translate(335,167)"/>
<path d="M0 0 C0.33 0.66 0.66 1.32 1 2 C2.65 1.67 4.3 1.34 6 1 C6 1.66 6 2.32 6 3 C6.84949219 2.83757812 7.69898438 2.67515625 8.57421875 2.5078125 C17.30613654 1.21345752 26.28543153 1.79799056 35 3 C35 3.33 35 3.66 35 4 C27.81917746 5.12866889 20.75794868 5.11434249 13.5 5.0625 C11.69402344 5.05573242 11.69402344 5.05573242 9.8515625 5.04882812 C6.90098927 5.0371195 3.95052141 5.02071995 1 5 C0.67 3.35 0.34 1.7 0 0 Z " fill="#061928" transform="translate(162,396)"/>
<path d="M0 0 C0.66 0 1.32 0 2 0 C1.96519531 0.99515625 1.93039063 1.9903125 1.89453125 3.015625 C1.6783066 12.35856755 2.38831663 21.18902984 4.02075195 30.39746094 C4.15956787 31.20086914 4.29838379 32.00427734 4.44140625 32.83203125 C4.57232666 33.54077393 4.70324707 34.2495166 4.83813477 34.97973633 C5.01678908 37.20954702 4.65399502 38.8732476 4 41 C4 40.01 4 39.02 4 38 C3.34 38 2.68 38 2 38 C-0.99649421 25.08290914 -1.10876783 13.18676412 0 0 Z " fill="#143445" transform="translate(203,266)"/>
<path d="M0 0 C1.15822266 -0.00483398 1.15822266 -0.00483398 2.33984375 -0.00976562 C6.89476953 0.03291256 10.59024633 0.59449174 14.875 2.3125 C12.09200867 3.10975157 9.71684994 3.40771005 6.828125 3.3046875 C6.065 3.28792969 5.301875 3.27117187 4.515625 3.25390625 C2.9372496 3.21006249 1.35907539 3.15813956 -0.21875 3.09765625 C-5.91443168 2.99253461 -9.87156629 4.12356929 -15.125 6.3125 C-18.125 6.5 -18.125 6.5 -20.125 6.3125 C-14.70550659 0.37473768 -7.57367182 -0.15964738 0 0 Z " fill="#D7833E" transform="translate(203.125,114.6875)"/>
<path d="M0 0 C0.33 0.66 0.66 1.32 1 2 C0.14453125 3.92578125 0.14453125 3.92578125 -1.1875 6.3125 C-3.9110201 11.48039825 -5.50697709 16.68104677 -7.0078125 22.3125 C-8 25 -8 25 -11 27 C-12.3271261 23.0186217 -12.06915913 19.14954773 -12 15 C-10.66666667 15 -9.33333333 15 -8 15 C-7.4225 13.824375 -6.845 12.64875 -6.25 11.4375 C-4.30328494 7.53711732 -2.19618668 3.76489146 0 0 Z " fill="#74A34D" transform="translate(224,290)"/>
<path d="M0 0 C0.33 0 0.66 0 1 0 C0.67 9.57 0.34 19.14 0 29 C-3.0521954 24.42170691 -3.21351715 21.20740138 -3.25 15.8125 C-3.270625 15.06935547 -3.29125 14.32621094 -3.3125 13.56054688 C-3.34943824 8.29223058 -2.36987786 4.70857312 0 0 Z " fill="#E18F37" transform="translate(168,137)"/>
<path d="M0 0 C0.33 0 0.66 0 1 0 C1.19644384 1.89492746 1.38177288 3.79100903 1.5625 5.6875 C1.66691406 6.74324219 1.77132812 7.79898437 1.87890625 8.88671875 C1.99510856 11.87424265 1.60952361 14.09403181 1 17 C0.72560909 20.63970125 0.60872912 24.28999315 0.48242188 27.9375 C0.30497516 31.75427841 0.16299906 33.75550142 -2 37 C-2.41277905 11.0298471 -2.41277905 11.0298471 0 0 Z " fill="#849F52" transform="translate(213,267)"/>
<path d="M0 0 C0 3.52032428 -0.70351351 4.4385343 -3 7 C-3.66 7 -4.32 7 -5 7 C-5.06574219 7.76828125 -5.13148438 8.5365625 -5.19921875 9.328125 C-6 12 -6 12 -8.14453125 13.546875 C-9.46517578 14.14242187 -9.46517578 14.14242187 -10.8125 14.75 C-11.68519531 15.15734375 -12.55789063 15.5646875 -13.45703125 15.984375 C-15.64011082 16.85626546 -17.7064117 17.50813491 -20 18 C-19.505 16.515 -19.505 16.515 -19 15 C-17 14 -15 13 -13 12 C-11.28891311 10.37897032 -9.62746694 8.70496537 -8 7 C-5.3644874 4.63050176 -2.68562826 2.31243922 0 0 Z " fill="#7C9A49" transform="translate(326,166)"/>
<path d="M0 0 C6.625 0.75 6.625 0.75 10 3 C12.31923274 3.36576054 12.31923274 3.36576054 14.88671875 3.4140625 C15.82451172 3.45273438 16.76230469 3.49140625 17.72851562 3.53125 C18.70498047 3.5621875 19.68144531 3.593125 20.6875 3.625 C21.67556641 3.66367188 22.66363281 3.70234375 23.68164062 3.7421875 C26.12090707 3.83645867 28.56016595 3.92206218 31 4 C27.41808468 6.38794355 24.71563456 6.42198876 20.5625 6.4375 C19.85544922 6.44136719 19.14839844 6.44523438 18.41992188 6.44921875 C11.58648184 6.30133547 6.02398528 4.19453765 0 1 C0 0.67 0 0.34 0 0 Z " fill="#D2843F" transform="translate(183,185)"/>
<path d="M0 0 C1.8174702 5.27305498 -0.74739434 9.19486668 -3 14 C-9.17647059 26.45098039 -9.17647059 26.45098039 -13 29 C-12.40138258 26.64828869 -11.73075648 24.3140622 -11 22 C-10.34 21.67 -9.68 21.34 -9 21 C-7.86839766 18.99486144 -7.86839766 18.99486144 -6.875 16.625 C-6.34519531 15.43777344 -6.34519531 15.43777344 -5.8046875 14.2265625 C-4.83005614 11.92435195 -4.83005614 11.92435195 -5 9 C-4.34 9 -3.68 9 -3 9 C-3 8.01 -3 7.02 -3 6 C-2.34 6 -1.68 6 -1 6 C-1.020625 5.195625 -1.04125 4.39125 -1.0625 3.5625 C-1 1 -1 1 0 0 Z " fill="#7F9B41" transform="translate(328,236)"/>
<path d="M0 0 C0.33 0 0.66 0 1 0 C1.21432579 6.64409958 0.51233701 12.53205867 -1 19 C-1.99 19 -2.98 19 -4 19 C-4.35497298 12.46586768 -4.03951967 7.83587777 -1 2 C-0.67 1.34 -0.34 0.68 0 0 Z " fill="#102F42" transform="translate(207,246)"/>
<path d="M0 0 C0.66 0.33 1.32 0.66 2 1 C-0.54129779 2.75053767 -3.08302577 4.50044506 -5.625 6.25 C-6.33785156 6.74113281 -7.05070312 7.23226562 -7.78515625 7.73828125 C-11.83554752 10.52524772 -15.90119913 13.28470605 -20 16 C-20 15.01 -20 14.02 -20 13 C-19.34 13 -18.68 13 -18 13 C-18 12.34 -18 11.68 -18 11 C-17.01 10.67 -16.02 10.34 -15 10 C-14.4225 9.21625 -13.845 8.4325 -13.25 7.625 C-10.48347839 4.39739146 -7.94461363 3.47923011 -4 2 C-3.236875 1.5875 -2.47375 1.175 -1.6875 0.75 C-1.130625 0.5025 -0.57375 0.255 0 0 Z " fill="#6F9D45" transform="translate(272,240)"/>
<path d="M0 0 C0.66 0 1.32 0 2 0 C2 0.99 2 1.98 2 3 C2.66 3.33 3.32 3.66 4 4 C1.69 6.97 -0.62 9.94 -3 13 C-3.90305236 10.29084291 -4.63723355 7.82957829 -5 5 C-4.34 4.34 -3.68 3.68 -3 3 C-2.01 3.33 -1.02 3.66 0 4 C0 2.68 0 1.36 0 0 Z " fill="#78AB31" transform="translate(312,262)"/>
<path d="M0 0 C0 1.65 0 3.3 0 5 C-0.66 5 -1.32 5 -2 5 C-2.33 6.98 -2.66 8.96 -3 11 C-3.78375 10.814375 -4.5675 10.62875 -5.375 10.4375 C-7.97089775 9.74037734 -7.97089775 9.74037734 -10 11 C-8.59698853 7.81326038 -6.92234929 5.67778594 -4.4375 3.25 C-3.81746094 2.63640625 -3.19742188 2.0228125 -2.55859375 1.390625 C-1 0 -1 0 0 0 Z " fill="#80AA34" transform="translate(241,220)"/>
<path d="M0 0 C1 2 1 2 0.125 5.0625 C-2 8 -2 8 -4.20703125 8.61328125 C-6.48283375 8.85340529 -8.71220621 8.99040757 -11 9 C-9.72648692 5.17946076 -8.37362475 4.76978625 -4.9375 2.8125 C-4.01839844 2.28269531 -3.09929687 1.75289062 -2.15234375 1.20703125 C-1.44207031 0.80871094 -0.73179687 0.41039062 0 0 Z " fill="#7AA03B" transform="translate(262,205)"/>
<path d="M0 0 C0.33 0.66 0.66 1.32 1 2 C-4.71325103 6.91110404 -10.63188959 10.20138719 -18 12 C-18.66 11.67 -19.32 11.34 -20 11 C-13.4 7.37 -6.8 3.74 0 0 Z " fill="#7F9D46" transform="translate(304,183)"/>
<path d="M0 0 C0.66 0.33 1.32 0.66 2 1 C0.625 2.5 0.625 2.5 -1 4 C-1.66 4 -2.32 4 -3 4 C-3.2475 4.5775 -3.495 5.155 -3.75 5.75 C-5.20679496 8.37223092 -6.68378742 10.09253081 -9 12 C-10.32 12 -11.64 12 -13 12 C-11.27802299 6.83406897 -7.60042117 4.59510938 -3 2 C-2.01 1.34 -1.02 0.68 0 0 Z " fill="#052135" transform="translate(222,383)"/>
<path d="M0 0 C0.99 0.33 1.98 0.66 3 1 C2.34 1 1.68 1 1 1 C1 1.66 1 2.32 1 3 C-0.73548169 4.44526736 -2.53975963 5.8087222 -4.375 7.125 C-5.37273437 7.84945313 -6.37046875 8.57390625 -7.3984375 9.3203125 C-10 11 -10 11 -12 11 C-11.34 9.02 -10.68 7.04 -10 5 C-9.236875 4.855625 -8.47375 4.71125 -7.6875 4.5625 C-4.91827092 4.0367406 -4.91827092 4.0367406 -2 3 C-2 2.34 -2 1.68 -2 1 C-1.34 0.67 -0.68 0.34 0 0 Z " fill="#86A43B" transform="translate(296,284)"/>
<path d="M0 0 C1.0326802 2.78823655 1.04509293 3.8677274 0.0625 6.75 C-0.288125 7.4925 -0.63875 8.235 -1 9 C-1.66 9 -2.32 9 -3 9 C-2.938125 9.9075 -2.87625 10.815 -2.8125 11.75 C-3.01672076 15.28982642 -3.64551835 16.44931155 -6 19 C-7.11435288 16.19723367 -7.00643141 15.02021689 -6.07421875 12.08984375 C-5.38779297 10.52943359 -5.38779297 10.52943359 -4.6875 8.9375 C-4.23761719 7.89464844 -3.78773438 6.85179687 -3.32421875 5.77734375 C-2 3 -2 3 0 0 Z " fill="#6E9C48" transform="translate(244,279)"/>
<path d="M0 0 C0.33 0 0.66 0 1 0 C1.76681614 7.66816143 1.76681614 7.66816143 -0.11328125 10.93359375 C-1.5 12.5625 -1.5 12.5625 -4 15 C-5 13 -5 13 -4.2578125 10.21484375 C-3.88398438 9.13332031 -3.51015625 8.05179688 -3.125 6.9375 C-2.75632813 5.85339844 -2.38765625 4.76929688 -2.0078125 3.65234375 C-1 1 -1 1 0 0 Z " fill="#7EA440" transform="translate(221,244)"/>
<path d="M0 0 C-1.56367357 3.52238047 -3.69495889 6.27123994 -6.125 9.25 C-6.84945312 10.14203125 -7.57390625 11.0340625 -8.3203125 11.953125 C-8.87460938 12.62859375 -9.42890625 13.3040625 -10 14 C-10.5859375 12.09765625 -10.5859375 12.09765625 -11 10 C-9.625 8.4375 -9.625 8.4375 -8 7 C-7.67 6.01 -7.34 5.02 -7 4 C-3.57142857 0 -3.57142857 0 0 0 Z " fill="#73A149" transform="translate(242,266)"/>
<path d="M0 0 C2.97 0 5.94 0 9 0 C6.91100178 4.17799643 5.94455388 4.92391901 2 7 C2 5.68 2 4.36 2 3 C1.34 3 0.68 3 0 3 C0 2.01 0 1.02 0 0 Z " fill="#132A39" transform="translate(235,202)"/>
<path d="M0 0 C1 3 1 3 -0.125 6 C-2.13355849 9.21369359 -3.552699 10.49733034 -7 12 C-7.66 11.67 -8.32 11.34 -9 11 C-6.03 7.37 -3.06 3.74 0 0 Z " fill="#71A048" transform="translate(262,254)"/>
<path d="M0 0 C7.26 0 14.52 0 22 0 C22 0.33 22 0.66 22 1 C18.95872183 1.33725065 15.91705809 1.66992332 12.875 2 C12.0190625 2.09539062 11.163125 2.19078125 10.28125 2.2890625 C5.82977526 2.76845209 1.48558075 3.11765458 -3 3 C-2.01 2.67 -1.02 2.34 0 2 C0 1.34 0 0.68 0 0 Z " fill="#091D2E" transform="translate(193,202)"/>
<path d="M0 0 C1.305239 3.91571701 0.32239848 5.03892997 -1.4375 8.6875 C-1.91058594 9.68136719 -2.38367188 10.67523438 -2.87109375 11.69921875 C-3.24363281 12.45847656 -3.61617187 13.21773438 -4 14 C-4.66 14 -5.32 14 -6 14 C-6 14.66 -6 15.32 -6 16 C-6.66 16 -7.32 16 -8 16 C-6.42986223 10.03347646 -3.24970218 5.17090975 0 0 Z " fill="#103A2F" transform="translate(231,280)"/>
<path d="M0 0 C0.66 0.33 1.32 0.66 2 1 C-0.47442348 4.35814615 -2.32222276 6.16111138 -6 8 C-7.26804566 10.0335948 -7.26804566 10.0335948 -8 12 C-9.32 11.67 -10.64 11.34 -12 11 C-8.17426612 7.07503959 -4.38002676 3.31820209 0 0 Z " fill="#6C984A" transform="translate(276,241)"/>
<path d="M0 0 C-0.90543849 2.71631546 -1.92474806 5.34771188 -3 8 C-3.66 8 -4.32 8 -5 8 C-5 8.66 -5 9.32 -5 10 C-5.99 9.67 -6.98 9.34 -8 9 C-6.68994234 5.06982701 -4.75047804 0 0 0 Z " fill="#052D47" transform="translate(257,255)"/>
<path d="M0 0 C0.99 0.33 1.98 0.66 3 1 C-0.3 3.64 -3.6 6.28 -7 9 C-7.99 8.34 -8.98 7.68 -10 7 C-8.4050992 5.80008401 -6.79873853 4.61538682 -5.1875 3.4375 C-3.84751953 2.44556641 -3.84751953 2.44556641 -2.48046875 1.43359375 C-1.66191406 0.96050781 -0.84335937 0.48742187 0 0 Z " fill="#22461B" transform="translate(277,238)"/>
<path d="M0 0 C0.66 0.33 1.32 0.66 2 1 C-1.998233 5.63795028 -7.04919104 7.80983821 -13 9 C-12 6 -12 6 -9 4 C-6.73828125 3.3671875 -6.73828125 3.3671875 -4.3125 2.875 C-3.50425781 2.70742187 -2.69601562 2.53984375 -1.86328125 2.3671875 C-1.24839844 2.24601563 -0.63351562 2.12484375 0 2 C0 1.34 0 0.68 0 0 Z " fill="#81A43F" transform="translate(319,175)"/>
<path d="M0 0 C0.33 0 0.66 0 1 0 C1.66 5.61 2.32 11.22 3 17 C2.67 16.01 2.34 15.02 2 14 C1.34 14 0.68 14 0 14 C-0.19627391 12.41773035 -0.38165538 10.83410729 -0.5625 9.25 C-0.66691406 8.36828125 -0.77132812 7.4865625 -0.87890625 6.578125 C-0.99456676 4.11567549 -0.73638695 2.33461936 0 0 Z " fill="#203945" transform="translate(205,290)"/>
<path d="M0 0 C3 1 3 1 4.4375 3.4375 C5.74878191 6.10793867 5.74878191 6.10793867 8.0625 7 C10 8 10 8 11.25 10.625 C11.4975 11.40875 11.745 12.1925 12 13 C8.89990231 11.61761648 6.71736127 10.01421141 4.3125 7.625 C3.71050781 7.03976563 3.10851562 6.45453125 2.48828125 5.8515625 C0.89864987 3.87391086 0.4094574 2.4785821 0 0 Z " fill="#DA823B" transform="translate(170,171)"/>
<path d="M0 0 C0.66 0.33 1.32 0.66 2 1 C1.25 3.9375 1.25 3.9375 0 7 C-2 7.6875 -2 7.6875 -4 8 C-4.99 9.485 -4.99 9.485 -6 11 C-6.66 11 -7.32 11 -8 11 C-6.63629701 8.00779732 -5.05091917 5.70973471 -2.875 3.25 C-2.33617187 2.63640625 -1.79734375 2.0228125 -1.2421875 1.390625 C-0.62730469 0.70226562 -0.62730469 0.70226562 0 0 Z " fill="#103834" transform="translate(244,264)"/>
<path d="M0 0 C0.33 0 0.66 0 1 0 C2.33257403 10.55808656 2.33257403 10.55808656 1 15 C-1.85689594 10.71465609 -1.34655647 7.03601927 -0.5 2.0625 C-0.335 1.381875 -0.17 0.70125 0 0 Z " fill="#21433B" transform="translate(231,315)"/>
<path d="M0 0 C0.66 0 1.32 0 2 0 C2.66 0.99 3.32 1.98 4 3 C4.66 3.33 5.32 3.66 6 4 C5.67 5.32 5.34 6.64 5 8 C3.68 8.33 2.36 8.66 1 9 C0.45627049 5.94152152 0 3.11227195 0 0 Z " fill="#052438" transform="translate(209,318)"/>
<path d="M0 0 C0.66 0.33 1.32 0.66 2 1 C2 2.32 2 3.64 2 5 C1.34 5.66 0.68 6.32 0 7 C-0.99 7 -1.98 7 -3 7 C-3 3 -3 3 -1.5 1.25 C-1.005 0.8375 -0.51 0.425 0 0 Z " fill="#77A624" transform="translate(283,235)"/>
<path d="M0 0 C0.33 0 0.66 0 1 0 C1.33 1.65 1.66 3.3 2 5 C3.98 4.67 5.96 4.34 8 4 C5.83312509 6.27521866 3.54379491 8.15794162 1 10 C-0.60725635 6.78548731 -0.05748185 3.56387464 0 0 Z " fill="#7D9954" transform="translate(232,313)"/>
<path d="M0 0 C0.99 0.99 1.98 1.98 3 3 C1.25 7.875 1.25 7.875 -1 9 C-1.33 6.69 -1.66 4.38 -2 2 C-1.34 2 -0.68 2 0 2 C0 1.34 0 0.68 0 0 Z " fill="#6D8F4B" transform="translate(214,308)"/>
<path d="M0 0 C0.66 0 1.32 0 2 0 C0.77946141 3.66161578 -0.36782304 4.16270474 -3.5625 6.1875 C-4.38878906 6.71730469 -5.21507812 7.24710938 -6.06640625 7.79296875 C-6.70449219 8.19128906 -7.34257812 8.58960938 -8 9 C-8 8.01 -8 7.02 -8 6 C-7.34 6 -6.68 6 -6 6 C-6 5.34 -6 4.68 -6 4 C-5.01 3.67 -4.02 3.34 -3 3 C-2.484375 2.484375 -1.96875 1.96875 -1.4375 1.4375 C-0.963125 0.963125 -0.48875 0.48875 0 0 Z " fill="#74A24D" transform="translate(260,247)"/>
<path d="M0 0 C0.33 0.99 0.66 1.98 1 3 C0.01 3.66 -0.98 4.32 -2 5 C-2.33 5.99 -2.66 6.98 -3 8 C-4.32 8 -5.64 8 -7 8 C-5.50902342 4.2047869 -3.24299151 2.38957269 0 0 Z " fill="#7C9B42" transform="translate(249,213)"/>
<path d="M0 0 C0.99 0.33 1.98 0.66 3 1 C3 1.99 3 2.98 3 4 C2.34 4 1.68 4 1 4 C0.67 6.97 0.34 9.94 0 13 C-0.33 13 -0.66 13 -1 13 C-2.0070238 7.96488101 -1.97387813 4.76052962 0 0 Z " fill="#84A93A" transform="translate(333,204)"/>
<path d="M0 0 C0.66 0 1.32 0 2 0 C1.4685789 4.51707932 -0.29015683 7.38687577 -3 11 C-3.99 11.495 -3.99 11.495 -5 12 C-4.67 10.68 -4.34 9.36 -4 8 C-3.34 8 -2.68 8 -2 8 C-2 6.68 -2 5.36 -2 4 C-1.34 4 -0.68 4 0 4 C0 2.68 0 1.36 0 0 Z " fill="#E5802D" transform="translate(235,167)"/>
<path d="M0 0 C0.99 0 1.98 0 3 0 C3.33 1.32 3.66 2.64 4 4 C1.36 4.99 -1.28 5.98 -4 7 C-2.79618552 4.50638429 -1.54571278 2.31856917 0 0 Z " fill="#729F48" transform="translate(332,160)"/>
<path d="M0 0 C0.66 0 1.32 0 2 0 C1.34 1.65 0.68 3.3 0 5 C-0.66 5 -1.32 5 -2 5 C-2.66 6.98 -3.32 8.96 -4 11 C-4.66 11 -5.32 11 -6 11 C-4.94124926 7.59687262 -3.99097846 4.98646769 -2 2 C-1.34 2 -0.68 2 0 2 C0 1.34 0 0.68 0 0 Z " fill="#E0893B" transform="translate(175,126)"/>
<path d="M0 0 C0.99 0.33 1.98 0.66 3 1 C2.67 1.66 2.34 2.32 2 3 C1.01 3 0.02 3 -1 3 C-1.268125 3.639375 -1.53625 4.27875 -1.8125 4.9375 C-3 7 -3 7 -6 8 C-6 7.34 -6 6.68 -6 6 C-5.34 6 -4.68 6 -4 6 C-3.896875 5.38125 -3.79375 4.7625 -3.6875 4.125 C-3 2 -3 2 0 0 Z " fill="#042032" transform="translate(234,208)"/>
<path d="M0 0 C0.33 0.99 0.66 1.98 1 3 C-3.455 6.96 -3.455 6.96 -8 11 C-8 8 -8 8 -6.25 5.95703125 C-5.5075 5.24933594 -4.765 4.54164063 -4 3.8125 C-2.88625 2.73935547 -2.88625 2.73935547 -1.75 1.64453125 C-1.1725 1.10183594 -0.595 0.55914062 0 0 Z " fill="#769446" transform="translate(240,220)"/>
<path d="M0 0 C0.33 0.66 0.66 1.32 1 2 C0.06553465 4.03144641 -0.93224776 6.03533587 -2 8 C-2.66 7.67 -3.32 7.34 -4 7 C-4 5.35 -4 3.7 -4 2 C-2.68 1.34 -1.36 0.68 0 0 Z " fill="#87A839" transform="translate(262,205)"/>
<path d="M0 0 C0.99 0.33 1.98 0.66 3 1 C0.525 4.465 0.525 4.465 -2 8 C-3 5 -3 5 -3 3 C-2.34 3 -1.68 3 -1 3 C-0.67 2.01 -0.34 1.02 0 0 Z " fill="#7E9E3B" transform="translate(311,267)"/>
<path d="M0 0 C-1.28913487 0.67154933 -2.58140204 1.33708859 -3.875 2 C-4.59429687 2.37125 -5.31359375 2.7425 -6.0546875 3.125 C-8 4 -8 4 -10 4 C-9.25 2.0625 -9.25 2.0625 -8 0 C-4.99756227 -1.30105635 -3.07011437 -0.84139118 0 0 Z " fill="#819B45" transform="translate(250,313)"/>
<path d="M0 0 C0.99 0.33 1.98 0.66 3 1 C2.34 1 1.68 1 1 1 C1 1.66 1 2.32 1 3 C-3.47058824 7 -3.47058824 7 -6 7 C-5.34 5.68 -4.68 4.36 -4 3 C-3.34 3 -2.68 3 -2 3 C-2 2.34 -2 1.68 -2 1 C-1.34 0.67 -0.68 0.34 0 0 Z " fill="#829E45" transform="translate(296,284)"/>
<path d="M0 0 C0.66 0 1.32 0 2 0 C2.33 2.31 2.66 4.62 3 7 C2.01 7 1.02 7 0 7 C-0.93423645 3.98968256 -1.04449911 3.13349732 0 0 Z " fill="#81A243" transform="translate(215,260)"/>
<path d="M0 0 C2.64 1.98 5.28 3.96 8 6 C7.67 6.66 7.34 7.32 7 8 C4.36 6.35 1.72 4.7 -1 3 C-0.67 2.01 -0.34 1.02 0 0 Z " fill="#DB8537" transform="translate(224,121)"/>
<path d="M0 0 C0.33 0.66 0.66 1.32 1 2 C2.65 1.67 4.3 1.34 6 1 C6.33 1.99 6.66 2.98 7 4 C5.02 4.33 3.04 4.66 1 5 C0.67 3.35 0.34 1.7 0 0 Z " fill="#092137" transform="translate(162,396)"/>
<path d="M0 0 C1.485 0.99 1.485 0.99 3 2 C3.6875 5.625 3.6875 5.625 4 9 C3.01 8.67 2.02 8.34 1 8 C0.67 5.36 0.34 2.72 0 0 Z " fill="#EA8821" transform="translate(168,163)"/>
<path d="M0 0 C3 1 3 1 4 3 C-0.455 3.495 -0.455 3.495 -5 4 C-2 1 -2 1 0 0 Z " fill="#E08639" transform="translate(188,117)"/>
<path d="M0 0 C0 3.69418201 -1.28179295 5.77836178 -3 9 C-3.66 9 -4.32 9 -5 9 C-3.7508258 5.54074837 -2.32472205 2.85306797 0 0 Z " fill="#7A9545" transform="translate(229,232)"/>
<path d="M0 0 C-0.33 1.32 -0.66 2.64 -1 4 C-3.31 4 -5.62 4 -8 4 C-3.375 0 -3.375 0 0 0 Z " fill="#83A042" transform="translate(272,201)"/>
<path d="M0 0 C1.32 1.32 2.64 2.64 4 4 C3.67 4.66 3.34 5.32 3 6 C1.68 6 0.36 6 -1 6 C-1.042721 4.33388095 -1.04063832 2.66617115 -1 1 C-0.67 0.67 -0.34 0.34 0 0 Z " fill="#86AB4C" transform="translate(213,304)"/>
<path d="M0 0 C4 1 4 1 4 1 Z " fill="#000C1C" transform="translate(197,201)"/>
<path d="" fill="#000000" transform="translate(0,0)"/>
<path d="" fill="#000000" transform="translate(0,0)"/>
</svg>
